#!OML:ASF H:\Pregnant\Project 1\Capture day 1\Session 1\femalepreg.ASF
:FULLY-SPECIFIED
:DEGREES
1686
root 7.47632 20.2038 3.16379 -337.719 -14.4922 -2.69894
lowerback -17.697 0.839988 1.06005
upperback -5.29695 0.847288 0.543034
thorax 4.24372 0.402715 0.149119
lowerneck -16.7771 1.40097 2.42871
upperneck 38.6936 0.959544 0.267858
head 16.8692 0.731082 -0.151266
rclavicle -4.18069e-015 -5.66536e-015
rhumerus -41.5065 -13.9403 -69.3037
rradius 27.3419
rwrist -0.0552824
rhand -10.4913 -15.8033
rfingers 7.12502
rthumb 15.5105 -45.2012
lclavicle -4.18069e-015 -5.66536e-015
lhumerus -36.4532 -5.08973 83.316
lradius 32.0726
lwrist 41.4385
lhand -24.2593 -4.12597
lfingers 7.12502
lthumb 2.22692 25.8422
rfemur -32.1314 7.504 28.403
rtibia 37.2638
rfoot -20.919 -30.491
rtoes 1.66588
lfemur -36.9731 -4.35631 -22.9798
ltibia 29.8391
lfoot -8.41924 9.91463
ltoes -34.8521
1687
root 7.47979 20.2025 3.17829 -337.738 -14.2006 -2.71168
lowerback -17.6873 0.815796 0.845003
upperback -5.24531 0.855476 0.520956
thorax 4.29094 0.407332 0.24976
lowerneck -16.7708 1.35688 2.43486
upperneck 38.7112 0.853701 0.364962
head 16.8754 0.703946 -0.128533
rclavicle 1.36167e-014 1.75924e-014
rhumerus -41.5464 -13.9023 -69.2896
rradius 27.2906
rwrist 0.0538856
rhand -10.3066 -15.7309
rfingers 7.12502
rthumb 15.6884 -45.1149
lclavicle 1.36167e-014 1.75924e-014
lhumerus -36.3979 -5.16913 83.3475
lradius 32.2197
lwrist 41.4999
lhand -24.3292 -4.12899
lfingers 7.12502
lthumb 2.15945 25.8398
rfemur -32.0329 7.42714 28.4522
rtibia 37.2501
rfoot -21.0111 -30.6623
rtoes 1.72949
lfemur -36.8938 -4.52556 -22.9427
ltibia 29.746
lfoot -8.35192 9.83458
ltoes -35.1282
1688
root 7.48325 20.201 3.19282 -337.754 -13.9377 -2.69652
lowerback -17.6865 0.790852 0.598257
upperback -5.18974 0.868848 0.485842
thorax 4.34672 0.414209 0.355852
lowerneck -16.7809 1.31406 2.45031
upperneck 38.7287 0.744292 0.465582
head 16.886 0.677224 -0.106448
rclavicle -3.69305e-014 -1.18277e-014
rhumerus -41.5621 -13.8779 -69.2821
rradius 27.2479
rwrist 0.176916
rhand -10.151 -15.684
rfingers 7.12502
rthumb 15.8382 -45.0562
lclavicle -3.69305e-014 -1.18277e-014
lhumerus -36.3347 -5.25601 83.3705
lradius 32.3408
lwrist 41.5631
lhand -24.4006 -4.12971
lfingers 7.12502
lthumb 2.09044 25.8398
rfemur -31.9757 7.36214 28.4643
rtibia 37.2868
rfoot -21.1076 -30.8324
rtoes 1.76489
lfemur -36.8103 -4.71255 -22.9321
ltibia 29.6309
lfoot -8.26073 9.77873
ltoes -35.4142
1689
root 7.48667 20.1992 3.20729 -337.764 -13.7 -2.65805
lowerback -17.6954 0.7646 0.324072
upperback -5.1328 0.88593 0.439917
thorax 4.40863 0.422549 0.467017
lowerneck -16.8032 1.27361 2.47641
upperneck 38.7466 0.633682 0.566979
head 16.9003 0.651701 -0.0860599
rclavicle 2.04375e-014 -1.31198e-014
rhumerus -41.5595 -13.865 -69.2798
rradius 27.2198
rwrist 0.310496
rhand -10.0259 -15.6651
rfingers 7.12502
rthumb 15.9587 -45.0276
lclavicle 2.04375e-014 -1.31198e-014
lhumerus -36.2659 -5.34747 83.385
lradius 32.4332
lwrist 41.6281
lhand -24.4758 -4.12858
lfingers 7.12502
lthumb 2.0178 25.8416
rfemur -31.9611 7.3049 28.4454
rtibia 37.3717
rfoot -21.2052 -30.9982
rtoes 1.76394
lfemur -36.7278 -4.91564 -22.9432
ltibia 29.4982
lfoot -8.14817 9.74547
ltoes -35.7135
1690
root 7.48999 20.1972 3.2216 -337.764 -13.4831 -2.60085
lowerback -17.7117 0.734299 0.0250139
upperback -5.07982 0.902511 0.388337
thorax 4.4698 0.430241 0.586296
lowerneck -16.8238 1.2374 2.51069
upperneck 38.764 0.527221 0.666291
head 16.9142 0.62875 -0.067298
rclavicle -7.59109e-015 -2.62396e-014
rhumerus -41.547 -13.853 -69.2793
rradius 27.2106
rwrist 0.449456
rhand -9.93363 -15.6728
rfingers 7.12502
rthumb 16.0476 -45.0282
lclavicle -7.59109e-015 -2.62396e-014
lhumerus -36.2012 -5.43404 83.3926
lradius 32.4965
lwrist 41.6933
lhand -24.5559 -4.12327
lfingers 7.12502
lthumb 1.9405 25.8476
rfemur -31.9881 7.25029 28.4021
rtibia 37.5019
rfoot -21.3017 -31.1562
rtoes 1.72206
lfemur -36.6509 -5.13229 -22.9716
ltibia 29.354
lfoot -8.01866 9.73145
ltoes -36.0258
1691
root 7.49319 20.1949 3.23572 -337.755 -13.282 -2.52852
lowerback -17.7327 0.698096 -0.295838
upperback -5.03417 0.915517 0.334264
thorax 4.52512 0.43579 0.714564
lowerneck -16.8332 1.20625 2.55027
upperneck 38.7792 0.427553 0.763576
head 16.9245 0.608982 -0.0491866
rclavicle -3.19298e-015 -1.09332e-014
rhumerus -41.5308 -13.8385 -69.2776
rradius 27.2231
rwrist 0.58966
rhand -9.87608 -15.7019
rfingers 7.12502
rthumb 16.103 -45.0529
lclavicle -3.19298e-015 -1.09332e-014
lhumerus -36.147 -5.51076 83.3943
lradius 32.531
lwrist 41.7572
lhand -24.6402 -4.11335
lfingers 7.12502
lthumb 1.85906 25.8583
rfemur -32.0541 7.19324 28.3402
rtibia 37.6741
rfoot -21.3963 -31.3037
rtoes 1.63681
lfemur -36.5826 -5.35936 -23.0138
ltibia 29.2043
lfoot -7.87835 9.73185
ltoes -36.3466
1692
root 7.49619 20.1923 3.24965 -337.737 -13.0914 -2.44418
lowerback -17.7547 0.653232 -0.637092
upperback -4.99898 0.920825 0.282098
thorax 4.56939 0.437239 0.854723
lowerneck -16.8225 1.18142 2.59113
upperneck 38.7913 0.338874 0.857868
head 16.9282 0.593316 -0.0307058
rclavicle -2.17421e-015 2.42517e-014
rhumerus -41.516 -13.8149 -69.2712
rradius 27.259
rwrist 0.725129
rhand -9.85307 -15.7428
rfingers 7.12502
rthumb 16.1251 -45.092
lclavicle -2.17421e-015 2.42517e-014
lhumerus -36.1105 -5.57123 83.3923
lradius 32.5381
lwrist 41.8177
lhand -24.7289 -4.0922
lfingers 7.12502
lthumb 1.77343 25.8802
rfemur -32.155 7.12954 28.2646
rtibia 37.8847
rfoot -21.4881 -31.4385
rtoes 1.50735
lfemur -36.5248 -5.59302 -23.0668
ltibia 29.0556
lfoot -7.73525 9.7405
ltoes -36.6654
